<mxfile host="app.diagrams.net" modified="2023-12-17T02:02:04.186Z" agent="Mozilla/5.0 (Macintosh; Intel Mac OS X 10_15_7) AppleWebKit/537.36 (KHTML, like Gecko) Chrome/119.0.0.0 Safari/537.36" etag="-ossNG2ZeEAWnD5WGrYY" version="22.1.7" type="device">
  <diagram name="Page-1" id="BIE50IwZvrtRxgVThMDo">
    <mxGraphModel dx="1912" dy="1060" grid="0" gridSize="10" guides="1" tooltips="1" connect="1" arrows="1" fold="1" page="1" pageScale="1" pageWidth="3300" pageHeight="4681" background="#FFFFFF" math="0" shadow="0">
      <root>
        <mxCell id="0" />
        <mxCell id="1" parent="0" />
        <mxCell id="pMBZAqhWsrPCzpvvNTBV-81" value="" style="edgeStyle=orthogonalEdgeStyle;rounded=0;orthogonalLoop=1;jettySize=auto;html=1;" edge="1" parent="1" source="pMBZAqhWsrPCzpvvNTBV-79" target="pMBZAqhWsrPCzpvvNTBV-80">
          <mxGeometry relative="1" as="geometry" />
        </mxCell>
        <mxCell id="pMBZAqhWsrPCzpvvNTBV-79" value="Start" style="rounded=1;whiteSpace=wrap;html=1;fillColor=#d5e8d4;strokeColor=#82b366;" vertex="1" parent="1">
          <mxGeometry x="1314" y="94" width="120" height="60" as="geometry" />
        </mxCell>
        <mxCell id="pMBZAqhWsrPCzpvvNTBV-83" value="" style="edgeStyle=orthogonalEdgeStyle;rounded=0;orthogonalLoop=1;jettySize=auto;html=1;" edge="1" parent="1" source="pMBZAqhWsrPCzpvvNTBV-80" target="pMBZAqhWsrPCzpvvNTBV-82">
          <mxGeometry relative="1" as="geometry" />
        </mxCell>
        <mxCell id="pMBZAqhWsrPCzpvvNTBV-80" value="Main Menu" style="rounded=0;whiteSpace=wrap;html=1;" vertex="1" parent="1">
          <mxGeometry x="1314" y="189" width="120" height="60" as="geometry" />
        </mxCell>
        <mxCell id="pMBZAqhWsrPCzpvvNTBV-85" value="" style="edgeStyle=orthogonalEdgeStyle;rounded=0;orthogonalLoop=1;jettySize=auto;html=1;" edge="1" parent="1" source="pMBZAqhWsrPCzpvvNTBV-82" target="pMBZAqhWsrPCzpvvNTBV-84">
          <mxGeometry relative="1" as="geometry" />
        </mxCell>
        <mxCell id="pMBZAqhWsrPCzpvvNTBV-87" value="" style="edgeStyle=orthogonalEdgeStyle;rounded=0;orthogonalLoop=1;jettySize=auto;html=1;" edge="1" parent="1" source="pMBZAqhWsrPCzpvvNTBV-82" target="pMBZAqhWsrPCzpvvNTBV-86">
          <mxGeometry relative="1" as="geometry" />
        </mxCell>
        <mxCell id="pMBZAqhWsrPCzpvvNTBV-89" value="" style="edgeStyle=orthogonalEdgeStyle;rounded=0;orthogonalLoop=1;jettySize=auto;html=1;" edge="1" parent="1" source="pMBZAqhWsrPCzpvvNTBV-82" target="pMBZAqhWsrPCzpvvNTBV-88">
          <mxGeometry relative="1" as="geometry" />
        </mxCell>
        <mxCell id="pMBZAqhWsrPCzpvvNTBV-91" value="" style="edgeStyle=orthogonalEdgeStyle;rounded=0;orthogonalLoop=1;jettySize=auto;html=1;" edge="1" parent="1" source="pMBZAqhWsrPCzpvvNTBV-82" target="pMBZAqhWsrPCzpvvNTBV-90">
          <mxGeometry relative="1" as="geometry" />
        </mxCell>
        <mxCell id="pMBZAqhWsrPCzpvvNTBV-82" value="User selects menu options" style="rhombus;whiteSpace=wrap;html=1;rounded=1;" vertex="1" parent="1">
          <mxGeometry x="1334" y="319" width="80" height="80" as="geometry" />
        </mxCell>
        <mxCell id="pMBZAqhWsrPCzpvvNTBV-93" value="" style="edgeStyle=orthogonalEdgeStyle;rounded=0;orthogonalLoop=1;jettySize=auto;html=1;" edge="1" parent="1" source="pMBZAqhWsrPCzpvvNTBV-84" target="pMBZAqhWsrPCzpvvNTBV-92">
          <mxGeometry relative="1" as="geometry" />
        </mxCell>
        <mxCell id="pMBZAqhWsrPCzpvvNTBV-84" value="Create new expense Tracker" style="whiteSpace=wrap;html=1;rounded=0;" vertex="1" parent="1">
          <mxGeometry x="755" y="427" width="120" height="60" as="geometry" />
        </mxCell>
        <mxCell id="pMBZAqhWsrPCzpvvNTBV-97" value="" style="edgeStyle=orthogonalEdgeStyle;rounded=0;orthogonalLoop=1;jettySize=auto;html=1;" edge="1" parent="1" source="pMBZAqhWsrPCzpvvNTBV-86" target="pMBZAqhWsrPCzpvvNTBV-96">
          <mxGeometry relative="1" as="geometry" />
        </mxCell>
        <mxCell id="pMBZAqhWsrPCzpvvNTBV-86" value="Load expense tracker" style="whiteSpace=wrap;html=1;rounded=0;" vertex="1" parent="1">
          <mxGeometry x="1123" y="427" width="120" height="60" as="geometry" />
        </mxCell>
        <mxCell id="pMBZAqhWsrPCzpvvNTBV-109" value="" style="edgeStyle=orthogonalEdgeStyle;rounded=0;orthogonalLoop=1;jettySize=auto;html=1;" edge="1" parent="1" source="pMBZAqhWsrPCzpvvNTBV-88" target="pMBZAqhWsrPCzpvvNTBV-108">
          <mxGeometry relative="1" as="geometry" />
        </mxCell>
        <mxCell id="pMBZAqhWsrPCzpvvNTBV-88" value="View instructions" style="whiteSpace=wrap;html=1;rounded=0;" vertex="1" parent="1">
          <mxGeometry x="1559" y="427" width="120" height="60" as="geometry" />
        </mxCell>
        <mxCell id="pMBZAqhWsrPCzpvvNTBV-114" value="" style="edgeStyle=orthogonalEdgeStyle;rounded=0;orthogonalLoop=1;jettySize=auto;html=1;" edge="1" parent="1" source="pMBZAqhWsrPCzpvvNTBV-90" target="pMBZAqhWsrPCzpvvNTBV-113">
          <mxGeometry relative="1" as="geometry" />
        </mxCell>
        <mxCell id="pMBZAqhWsrPCzpvvNTBV-90" value="Exit" style="whiteSpace=wrap;html=1;rounded=0;" vertex="1" parent="1">
          <mxGeometry x="1951" y="427" width="120" height="60" as="geometry" />
        </mxCell>
        <mxCell id="pMBZAqhWsrPCzpvvNTBV-95" value="" style="edgeStyle=orthogonalEdgeStyle;rounded=0;orthogonalLoop=1;jettySize=auto;html=1;" edge="1" parent="1" source="pMBZAqhWsrPCzpvvNTBV-92" target="pMBZAqhWsrPCzpvvNTBV-94">
          <mxGeometry relative="1" as="geometry" />
        </mxCell>
        <mxCell id="pMBZAqhWsrPCzpvvNTBV-92" value="Initialise data structure" style="whiteSpace=wrap;html=1;rounded=0;" vertex="1" parent="1">
          <mxGeometry x="755" y="532" width="120" height="60" as="geometry" />
        </mxCell>
        <mxCell id="pMBZAqhWsrPCzpvvNTBV-118" value="" style="edgeStyle=orthogonalEdgeStyle;rounded=0;orthogonalLoop=1;jettySize=auto;html=1;" edge="1" parent="1" source="pMBZAqhWsrPCzpvvNTBV-94" target="pMBZAqhWsrPCzpvvNTBV-117">
          <mxGeometry relative="1" as="geometry" />
        </mxCell>
        <mxCell id="pMBZAqhWsrPCzpvvNTBV-94" value="Sub Menu" style="whiteSpace=wrap;html=1;rounded=0;" vertex="1" parent="1">
          <mxGeometry x="755" y="832" width="120" height="60" as="geometry" />
        </mxCell>
        <mxCell id="pMBZAqhWsrPCzpvvNTBV-96" value="Prompt user to enter file name" style="whiteSpace=wrap;html=1;rounded=0;" vertex="1" parent="1">
          <mxGeometry x="1123" y="532" width="120" height="60" as="geometry" />
        </mxCell>
        <mxCell id="pMBZAqhWsrPCzpvvNTBV-101" value="" style="edgeStyle=orthogonalEdgeStyle;rounded=0;orthogonalLoop=1;jettySize=auto;html=1;" edge="1" parent="1" source="pMBZAqhWsrPCzpvvNTBV-98" target="pMBZAqhWsrPCzpvvNTBV-100">
          <mxGeometry relative="1" as="geometry" />
        </mxCell>
        <mxCell id="pMBZAqhWsrPCzpvvNTBV-104" value="Valid input" style="edgeLabel;html=1;align=center;verticalAlign=middle;resizable=0;points=[];" vertex="1" connectable="0" parent="pMBZAqhWsrPCzpvvNTBV-101">
          <mxGeometry x="-0.0641" y="3" relative="1" as="geometry">
            <mxPoint y="-1" as="offset" />
          </mxGeometry>
        </mxCell>
        <mxCell id="pMBZAqhWsrPCzpvvNTBV-103" value="" style="edgeStyle=orthogonalEdgeStyle;rounded=0;orthogonalLoop=1;jettySize=auto;html=1;" edge="1" parent="1" source="pMBZAqhWsrPCzpvvNTBV-98" target="pMBZAqhWsrPCzpvvNTBV-102">
          <mxGeometry relative="1" as="geometry" />
        </mxCell>
        <mxCell id="pMBZAqhWsrPCzpvvNTBV-105" value="Invalid input" style="edgeLabel;html=1;align=center;verticalAlign=middle;resizable=0;points=[];" vertex="1" connectable="0" parent="pMBZAqhWsrPCzpvvNTBV-103">
          <mxGeometry x="0.0815" y="3" relative="1" as="geometry">
            <mxPoint x="-5" y="3" as="offset" />
          </mxGeometry>
        </mxCell>
        <mxCell id="pMBZAqhWsrPCzpvvNTBV-98" value="&lt;font style=&quot;font-size: 10px;&quot;&gt;Input file name to load from user&#39;s desktop&lt;/font&gt;" style="shape=parallelogram;perimeter=parallelogramPerimeter;whiteSpace=wrap;html=1;fixedSize=1;" vertex="1" parent="1">
          <mxGeometry x="1123" y="668" width="120" height="60" as="geometry" />
        </mxCell>
        <mxCell id="pMBZAqhWsrPCzpvvNTBV-99" value="" style="endArrow=classic;html=1;rounded=0;entryX=0.5;entryY=0;entryDx=0;entryDy=0;" edge="1" parent="1">
          <mxGeometry width="50" height="50" relative="1" as="geometry">
            <mxPoint x="1182.33" y="592" as="sourcePoint" />
            <mxPoint x="1183.33" y="667" as="targetPoint" />
          </mxGeometry>
        </mxCell>
        <mxCell id="pMBZAqhWsrPCzpvvNTBV-100" value="Data is loaded" style="whiteSpace=wrap;html=1;" vertex="1" parent="1">
          <mxGeometry x="1123" y="829" width="120" height="60" as="geometry" />
        </mxCell>
        <mxCell id="pMBZAqhWsrPCzpvvNTBV-102" value="Display error message to say file couldn&#39;t be found or loaded" style="whiteSpace=wrap;html=1;" vertex="1" parent="1">
          <mxGeometry x="1314" y="668" width="120" height="60" as="geometry" />
        </mxCell>
        <mxCell id="pMBZAqhWsrPCzpvvNTBV-106" value="" style="endArrow=classic;html=1;rounded=0;entryX=0.5;entryY=1;entryDx=0;entryDy=0;" edge="1" parent="1" target="pMBZAqhWsrPCzpvvNTBV-82">
          <mxGeometry width="50" height="50" relative="1" as="geometry">
            <mxPoint x="1374" y="667" as="sourcePoint" />
            <mxPoint x="1431" y="617" as="targetPoint" />
          </mxGeometry>
        </mxCell>
        <mxCell id="pMBZAqhWsrPCzpvvNTBV-107" value="" style="endArrow=classic;html=1;rounded=0;" edge="1" parent="1">
          <mxGeometry width="50" height="50" relative="1" as="geometry">
            <mxPoint x="1123" y="863" as="sourcePoint" />
            <mxPoint x="874" y="863" as="targetPoint" />
          </mxGeometry>
        </mxCell>
        <mxCell id="pMBZAqhWsrPCzpvvNTBV-108" value="Display instructions" style="whiteSpace=wrap;html=1;rounded=0;" vertex="1" parent="1">
          <mxGeometry x="1559" y="567" width="120" height="60" as="geometry" />
        </mxCell>
        <mxCell id="pMBZAqhWsrPCzpvvNTBV-112" value="" style="endArrow=classic;html=1;rounded=0;" edge="1" parent="1" target="pMBZAqhWsrPCzpvvNTBV-82">
          <mxGeometry width="50" height="50" relative="1" as="geometry">
            <mxPoint x="1558" y="598" as="sourcePoint" />
            <mxPoint x="1608" y="548" as="targetPoint" />
          </mxGeometry>
        </mxCell>
        <mxCell id="pMBZAqhWsrPCzpvvNTBV-116" value="" style="edgeStyle=orthogonalEdgeStyle;rounded=0;orthogonalLoop=1;jettySize=auto;html=1;" edge="1" parent="1" source="pMBZAqhWsrPCzpvvNTBV-113" target="pMBZAqhWsrPCzpvvNTBV-115">
          <mxGeometry relative="1" as="geometry" />
        </mxCell>
        <mxCell id="pMBZAqhWsrPCzpvvNTBV-113" value="Terminate application" style="whiteSpace=wrap;html=1;rounded=0;" vertex="1" parent="1">
          <mxGeometry x="1951" y="567" width="120" height="60" as="geometry" />
        </mxCell>
        <mxCell id="pMBZAqhWsrPCzpvvNTBV-115" value="End" style="whiteSpace=wrap;html=1;rounded=1;fillColor=#f8cecc;strokeColor=#b85450;" vertex="1" parent="1">
          <mxGeometry x="2814" y="567" width="120" height="60" as="geometry" />
        </mxCell>
        <mxCell id="pMBZAqhWsrPCzpvvNTBV-117" value="User selects sub menu options" style="rhombus;whiteSpace=wrap;html=1;rounded=0;" vertex="1" parent="1">
          <mxGeometry x="775" y="962" width="80" height="80" as="geometry" />
        </mxCell>
        <mxCell id="pMBZAqhWsrPCzpvvNTBV-131" value="" style="edgeStyle=orthogonalEdgeStyle;rounded=0;orthogonalLoop=1;jettySize=auto;html=1;" edge="1" parent="1" source="pMBZAqhWsrPCzpvvNTBV-121" target="pMBZAqhWsrPCzpvvNTBV-130">
          <mxGeometry relative="1" as="geometry" />
        </mxCell>
        <mxCell id="pMBZAqhWsrPCzpvvNTBV-121" value="Add income" style="rounded=0;whiteSpace=wrap;html=1;" vertex="1" parent="1">
          <mxGeometry x="827" y="1058" width="120" height="60" as="geometry" />
        </mxCell>
        <mxCell id="pMBZAqhWsrPCzpvvNTBV-122" value="" style="endArrow=none;html=1;rounded=0;" edge="1" parent="1">
          <mxGeometry width="50" height="50" relative="1" as="geometry">
            <mxPoint x="854" y="1002" as="sourcePoint" />
            <mxPoint x="3114" y="998" as="targetPoint" />
          </mxGeometry>
        </mxCell>
        <mxCell id="pMBZAqhWsrPCzpvvNTBV-199" value="" style="edgeStyle=orthogonalEdgeStyle;rounded=0;orthogonalLoop=1;jettySize=auto;html=1;" edge="1" parent="1" source="pMBZAqhWsrPCzpvvNTBV-124" target="pMBZAqhWsrPCzpvvNTBV-198">
          <mxGeometry relative="1" as="geometry" />
        </mxCell>
        <mxCell id="pMBZAqhWsrPCzpvvNTBV-124" value="View your entries" style="rounded=0;whiteSpace=wrap;html=1;" vertex="1" parent="1">
          <mxGeometry x="1589" y="1058" width="120" height="60" as="geometry" />
        </mxCell>
        <mxCell id="pMBZAqhWsrPCzpvvNTBV-234" value="" style="edgeStyle=orthogonalEdgeStyle;rounded=0;orthogonalLoop=1;jettySize=auto;html=1;" edge="1" parent="1" source="pMBZAqhWsrPCzpvvNTBV-125" target="pMBZAqhWsrPCzpvvNTBV-233">
          <mxGeometry relative="1" as="geometry" />
        </mxCell>
        <mxCell id="pMBZAqhWsrPCzpvvNTBV-125" value="Save data" style="rounded=0;whiteSpace=wrap;html=1;" vertex="1" parent="1">
          <mxGeometry x="1987" y="1061" width="120" height="60" as="geometry" />
        </mxCell>
        <mxCell id="pMBZAqhWsrPCzpvvNTBV-251" value="" style="edgeStyle=orthogonalEdgeStyle;rounded=0;orthogonalLoop=1;jettySize=auto;html=1;" edge="1" parent="1" source="pMBZAqhWsrPCzpvvNTBV-126" target="pMBZAqhWsrPCzpvvNTBV-250">
          <mxGeometry relative="1" as="geometry" />
        </mxCell>
        <mxCell id="pMBZAqhWsrPCzpvvNTBV-126" value="Delete entry" style="rounded=0;whiteSpace=wrap;html=1;" vertex="1" parent="1">
          <mxGeometry x="2374" y="1058" width="120" height="60" as="geometry" />
        </mxCell>
        <mxCell id="pMBZAqhWsrPCzpvvNTBV-275" value="" style="edgeStyle=orthogonalEdgeStyle;rounded=0;orthogonalLoop=1;jettySize=auto;html=1;" edge="1" parent="1" source="pMBZAqhWsrPCzpvvNTBV-127" target="pMBZAqhWsrPCzpvvNTBV-274">
          <mxGeometry relative="1" as="geometry" />
        </mxCell>
        <mxCell id="pMBZAqhWsrPCzpvvNTBV-127" value="Export to CSV" style="rounded=0;whiteSpace=wrap;html=1;" vertex="1" parent="1">
          <mxGeometry x="2775" y="1058" width="120" height="60" as="geometry" />
        </mxCell>
        <mxCell id="pMBZAqhWsrPCzpvvNTBV-128" value="Return to main menu" style="rounded=0;whiteSpace=wrap;html=1;" vertex="1" parent="1">
          <mxGeometry x="3057" y="1058" width="120" height="60" as="geometry" />
        </mxCell>
        <mxCell id="pMBZAqhWsrPCzpvvNTBV-129" value="" style="endArrow=classic;html=1;rounded=0;entryX=0.5;entryY=0;entryDx=0;entryDy=0;snapToPoint=0;" edge="1" parent="1" target="pMBZAqhWsrPCzpvvNTBV-121">
          <mxGeometry width="50" height="50" relative="1" as="geometry">
            <mxPoint x="887" y="1001" as="sourcePoint" />
            <mxPoint x="967" y="952" as="targetPoint" />
            <Array as="points">
              <mxPoint x="887" y="1032" />
            </Array>
          </mxGeometry>
        </mxCell>
        <mxCell id="pMBZAqhWsrPCzpvvNTBV-133" value="" style="edgeStyle=orthogonalEdgeStyle;rounded=0;orthogonalLoop=1;jettySize=auto;html=1;" edge="1" parent="1" source="pMBZAqhWsrPCzpvvNTBV-130" target="pMBZAqhWsrPCzpvvNTBV-132">
          <mxGeometry relative="1" as="geometry" />
        </mxCell>
        <mxCell id="pMBZAqhWsrPCzpvvNTBV-130" value="Prompt user to add income entry details" style="rounded=0;whiteSpace=wrap;html=1;" vertex="1" parent="1">
          <mxGeometry x="827" y="1162" width="120" height="60" as="geometry" />
        </mxCell>
        <mxCell id="pMBZAqhWsrPCzpvvNTBV-135" value="" style="edgeStyle=orthogonalEdgeStyle;rounded=0;orthogonalLoop=1;jettySize=auto;html=1;" edge="1" parent="1" source="pMBZAqhWsrPCzpvvNTBV-132" target="pMBZAqhWsrPCzpvvNTBV-134">
          <mxGeometry relative="1" as="geometry" />
        </mxCell>
        <mxCell id="pMBZAqhWsrPCzpvvNTBV-155" value="Input valid" style="edgeLabel;html=1;align=center;verticalAlign=middle;resizable=0;points=[];" vertex="1" connectable="0" parent="pMBZAqhWsrPCzpvvNTBV-135">
          <mxGeometry x="-0.6282" relative="1" as="geometry">
            <mxPoint y="12" as="offset" />
          </mxGeometry>
        </mxCell>
        <mxCell id="pMBZAqhWsrPCzpvvNTBV-146" value="" style="edgeStyle=orthogonalEdgeStyle;rounded=0;orthogonalLoop=1;jettySize=auto;html=1;" edge="1" parent="1" source="pMBZAqhWsrPCzpvvNTBV-132" target="pMBZAqhWsrPCzpvvNTBV-145">
          <mxGeometry relative="1" as="geometry" />
        </mxCell>
        <mxCell id="pMBZAqhWsrPCzpvvNTBV-147" value="Invalid input" style="edgeLabel;html=1;align=center;verticalAlign=middle;resizable=0;points=[];" vertex="1" connectable="0" parent="pMBZAqhWsrPCzpvvNTBV-146">
          <mxGeometry x="-0.1261" y="3" relative="1" as="geometry">
            <mxPoint as="offset" />
          </mxGeometry>
        </mxCell>
        <mxCell id="pMBZAqhWsrPCzpvvNTBV-132" value="Enter income name" style="shape=parallelogram;perimeter=parallelogramPerimeter;whiteSpace=wrap;html=1;fixedSize=1;rounded=0;" vertex="1" parent="1">
          <mxGeometry x="820.5" y="1278.5" width="133" height="67" as="geometry" />
        </mxCell>
        <mxCell id="pMBZAqhWsrPCzpvvNTBV-137" value="" style="edgeStyle=orthogonalEdgeStyle;rounded=0;orthogonalLoop=1;jettySize=auto;html=1;" edge="1" parent="1" source="pMBZAqhWsrPCzpvvNTBV-134" target="pMBZAqhWsrPCzpvvNTBV-136">
          <mxGeometry relative="1" as="geometry" />
        </mxCell>
        <mxCell id="pMBZAqhWsrPCzpvvNTBV-161" value="Input valid" style="edgeLabel;html=1;align=center;verticalAlign=middle;resizable=0;points=[];" vertex="1" connectable="0" parent="pMBZAqhWsrPCzpvvNTBV-137">
          <mxGeometry x="-0.7372" y="-3" relative="1" as="geometry">
            <mxPoint x="3" y="7" as="offset" />
          </mxGeometry>
        </mxCell>
        <mxCell id="pMBZAqhWsrPCzpvvNTBV-150" value="" style="edgeStyle=orthogonalEdgeStyle;rounded=0;orthogonalLoop=1;jettySize=auto;html=1;" edge="1" parent="1" source="pMBZAqhWsrPCzpvvNTBV-134" target="pMBZAqhWsrPCzpvvNTBV-149">
          <mxGeometry relative="1" as="geometry" />
        </mxCell>
        <mxCell id="pMBZAqhWsrPCzpvvNTBV-151" value="Invalid input" style="edgeLabel;html=1;align=center;verticalAlign=middle;resizable=0;points=[];" vertex="1" connectable="0" parent="pMBZAqhWsrPCzpvvNTBV-150">
          <mxGeometry x="-0.1418" y="-1" relative="1" as="geometry">
            <mxPoint x="4" y="-5" as="offset" />
          </mxGeometry>
        </mxCell>
        <mxCell id="pMBZAqhWsrPCzpvvNTBV-134" value="Enter income amount" style="shape=parallelogram;perimeter=parallelogramPerimeter;whiteSpace=wrap;html=1;fixedSize=1;rounded=0;" vertex="1" parent="1">
          <mxGeometry x="814.5" y="1396" width="145" height="64" as="geometry" />
        </mxCell>
        <mxCell id="pMBZAqhWsrPCzpvvNTBV-141" value="" style="edgeStyle=orthogonalEdgeStyle;rounded=0;orthogonalLoop=1;jettySize=auto;html=1;" edge="1" parent="1" source="pMBZAqhWsrPCzpvvNTBV-136" target="pMBZAqhWsrPCzpvvNTBV-140">
          <mxGeometry relative="1" as="geometry" />
        </mxCell>
        <mxCell id="pMBZAqhWsrPCzpvvNTBV-162" value="Input valid" style="edgeLabel;html=1;align=center;verticalAlign=middle;resizable=0;points=[];" vertex="1" connectable="0" parent="pMBZAqhWsrPCzpvvNTBV-141">
          <mxGeometry x="-0.4752" y="-3" relative="1" as="geometry">
            <mxPoint x="3" y="7" as="offset" />
          </mxGeometry>
        </mxCell>
        <mxCell id="pMBZAqhWsrPCzpvvNTBV-157" value="" style="edgeStyle=orthogonalEdgeStyle;rounded=0;orthogonalLoop=1;jettySize=auto;html=1;" edge="1" parent="1" source="pMBZAqhWsrPCzpvvNTBV-136" target="pMBZAqhWsrPCzpvvNTBV-156">
          <mxGeometry relative="1" as="geometry" />
        </mxCell>
        <mxCell id="pMBZAqhWsrPCzpvvNTBV-158" value="Invalid input" style="edgeLabel;html=1;align=center;verticalAlign=middle;resizable=0;points=[];" vertex="1" connectable="0" parent="pMBZAqhWsrPCzpvvNTBV-157">
          <mxGeometry x="-0.2096" y="3" relative="1" as="geometry">
            <mxPoint x="3" y="3" as="offset" />
          </mxGeometry>
        </mxCell>
        <mxCell id="pMBZAqhWsrPCzpvvNTBV-136" value="User selects income category" style="rhombus;whiteSpace=wrap;html=1;rounded=0;" vertex="1" parent="1">
          <mxGeometry x="832.5" y="1506" width="109" height="95" as="geometry" />
        </mxCell>
        <mxCell id="pMBZAqhWsrPCzpvvNTBV-143" value="" style="edgeStyle=orthogonalEdgeStyle;rounded=0;orthogonalLoop=1;jettySize=auto;html=1;" edge="1" parent="1" source="pMBZAqhWsrPCzpvvNTBV-140" target="pMBZAqhWsrPCzpvvNTBV-142">
          <mxGeometry relative="1" as="geometry" />
        </mxCell>
        <mxCell id="pMBZAqhWsrPCzpvvNTBV-140" value="Income date automatically added with datetime package" style="whiteSpace=wrap;html=1;rounded=0;" vertex="1" parent="1">
          <mxGeometry x="827" y="1648" width="120" height="60" as="geometry" />
        </mxCell>
        <mxCell id="pMBZAqhWsrPCzpvvNTBV-142" value="Income entry added" style="whiteSpace=wrap;html=1;rounded=0;" vertex="1" parent="1">
          <mxGeometry x="827" y="1760" width="120" height="60" as="geometry" />
        </mxCell>
        <mxCell id="pMBZAqhWsrPCzpvvNTBV-145" value="Display error message that user input is not valid" style="whiteSpace=wrap;html=1;rounded=0;" vertex="1" parent="1">
          <mxGeometry x="1048" y="1282" width="120" height="60" as="geometry" />
        </mxCell>
        <mxCell id="pMBZAqhWsrPCzpvvNTBV-148" value="" style="endArrow=classic;html=1;rounded=0;exitX=0.5;exitY=0;exitDx=0;exitDy=0;" edge="1" parent="1" source="pMBZAqhWsrPCzpvvNTBV-145">
          <mxGeometry width="50" height="50" relative="1" as="geometry">
            <mxPoint x="1146" y="1278.5" as="sourcePoint" />
            <mxPoint x="894" y="1254" as="targetPoint" />
          </mxGeometry>
        </mxCell>
        <mxCell id="pMBZAqhWsrPCzpvvNTBV-149" value="Display error message that user input is not valid" style="whiteSpace=wrap;html=1;rounded=0;" vertex="1" parent="1">
          <mxGeometry x="1048" y="1400" width="120" height="60" as="geometry" />
        </mxCell>
        <mxCell id="pMBZAqhWsrPCzpvvNTBV-152" value="" style="endArrow=classic;html=1;rounded=0;exitX=0.5;exitY=0;exitDx=0;exitDy=0;" edge="1" parent="1" source="pMBZAqhWsrPCzpvvNTBV-149">
          <mxGeometry width="50" height="50" relative="1" as="geometry">
            <mxPoint x="1152" y="1394" as="sourcePoint" />
            <mxPoint x="895" y="1354" as="targetPoint" />
          </mxGeometry>
        </mxCell>
        <mxCell id="pMBZAqhWsrPCzpvvNTBV-153" value="" style="endArrow=classic;html=1;rounded=0;entryX=0;entryY=0.5;entryDx=0;entryDy=0;exitX=0;exitY=0.5;exitDx=0;exitDy=0;" edge="1" parent="1" source="pMBZAqhWsrPCzpvvNTBV-142" target="pMBZAqhWsrPCzpvvNTBV-94">
          <mxGeometry width="50" height="50" relative="1" as="geometry">
            <mxPoint x="852" y="1785" as="sourcePoint" />
            <mxPoint x="682" y="985" as="targetPoint" />
            <Array as="points">
              <mxPoint x="682" y="1789" />
              <mxPoint x="682" y="1002" />
              <mxPoint x="682" y="862" />
            </Array>
          </mxGeometry>
        </mxCell>
        <mxCell id="pMBZAqhWsrPCzpvvNTBV-156" value="Display error message that user input is not valid" style="whiteSpace=wrap;html=1;rounded=0;" vertex="1" parent="1">
          <mxGeometry x="1048" y="1523.5" width="120" height="60" as="geometry" />
        </mxCell>
        <mxCell id="pMBZAqhWsrPCzpvvNTBV-160" value="" style="endArrow=classic;html=1;rounded=0;exitX=0.5;exitY=0;exitDx=0;exitDy=0;" edge="1" parent="1" source="pMBZAqhWsrPCzpvvNTBV-156">
          <mxGeometry width="50" height="50" relative="1" as="geometry">
            <mxPoint x="1146" y="1512.5" as="sourcePoint" />
            <mxPoint x="892" y="1485" as="targetPoint" />
          </mxGeometry>
        </mxCell>
        <mxCell id="pMBZAqhWsrPCzpvvNTBV-166" value="" style="edgeStyle=orthogonalEdgeStyle;rounded=0;orthogonalLoop=1;jettySize=auto;html=1;" edge="1" parent="1" source="pMBZAqhWsrPCzpvvNTBV-163" target="pMBZAqhWsrPCzpvvNTBV-165">
          <mxGeometry relative="1" as="geometry" />
        </mxCell>
        <mxCell id="pMBZAqhWsrPCzpvvNTBV-163" value="Add expense" style="rounded=0;whiteSpace=wrap;html=1;" vertex="1" parent="1">
          <mxGeometry x="1222" y="1058" width="120" height="60" as="geometry" />
        </mxCell>
        <mxCell id="pMBZAqhWsrPCzpvvNTBV-164" value="" style="endArrow=classic;html=1;rounded=0;entryX=0.5;entryY=0;entryDx=0;entryDy=0;snapToPoint=0;" edge="1" parent="1">
          <mxGeometry width="50" height="50" relative="1" as="geometry">
            <mxPoint x="1285" y="1001" as="sourcePoint" />
            <mxPoint x="1285" y="1058" as="targetPoint" />
            <Array as="points">
              <mxPoint x="1285" y="1032" />
            </Array>
          </mxGeometry>
        </mxCell>
        <mxCell id="pMBZAqhWsrPCzpvvNTBV-168" value="" style="edgeStyle=orthogonalEdgeStyle;rounded=0;orthogonalLoop=1;jettySize=auto;html=1;" edge="1" parent="1" source="pMBZAqhWsrPCzpvvNTBV-165" target="pMBZAqhWsrPCzpvvNTBV-167">
          <mxGeometry relative="1" as="geometry" />
        </mxCell>
        <mxCell id="pMBZAqhWsrPCzpvvNTBV-165" value="Prompt user to add expense entry details" style="rounded=0;whiteSpace=wrap;html=1;" vertex="1" parent="1">
          <mxGeometry x="1222" y="1162" width="120" height="60" as="geometry" />
        </mxCell>
        <mxCell id="pMBZAqhWsrPCzpvvNTBV-172" value="" style="edgeStyle=orthogonalEdgeStyle;rounded=0;orthogonalLoop=1;jettySize=auto;html=1;" edge="1" parent="1" source="pMBZAqhWsrPCzpvvNTBV-167" target="pMBZAqhWsrPCzpvvNTBV-171">
          <mxGeometry relative="1" as="geometry" />
        </mxCell>
        <mxCell id="pMBZAqhWsrPCzpvvNTBV-180" value="Input valid" style="edgeLabel;html=1;align=center;verticalAlign=middle;resizable=0;points=[];" vertex="1" connectable="0" parent="pMBZAqhWsrPCzpvvNTBV-172">
          <mxGeometry x="-0.086" y="4" relative="1" as="geometry">
            <mxPoint y="-8" as="offset" />
          </mxGeometry>
        </mxCell>
        <mxCell id="pMBZAqhWsrPCzpvvNTBV-188" value="" style="edgeStyle=orthogonalEdgeStyle;rounded=0;orthogonalLoop=1;jettySize=auto;html=1;" edge="1" parent="1" source="pMBZAqhWsrPCzpvvNTBV-167" target="pMBZAqhWsrPCzpvvNTBV-187">
          <mxGeometry relative="1" as="geometry" />
        </mxCell>
        <mxCell id="pMBZAqhWsrPCzpvvNTBV-192" value="Invalid input" style="edgeLabel;html=1;align=center;verticalAlign=middle;resizable=0;points=[];" vertex="1" connectable="0" parent="pMBZAqhWsrPCzpvvNTBV-188">
          <mxGeometry x="-0.0938" y="4" relative="1" as="geometry">
            <mxPoint x="1" y="1" as="offset" />
          </mxGeometry>
        </mxCell>
        <mxCell id="pMBZAqhWsrPCzpvvNTBV-167" value="Enter expense name" style="shape=parallelogram;perimeter=parallelogramPerimeter;whiteSpace=wrap;html=1;fixedSize=1;rounded=0;" vertex="1" parent="1">
          <mxGeometry x="1215.5" y="1267" width="133" height="67" as="geometry" />
        </mxCell>
        <mxCell id="pMBZAqhWsrPCzpvvNTBV-174" value="" style="edgeStyle=orthogonalEdgeStyle;rounded=0;orthogonalLoop=1;jettySize=auto;html=1;" edge="1" parent="1" source="pMBZAqhWsrPCzpvvNTBV-171" target="pMBZAqhWsrPCzpvvNTBV-173">
          <mxGeometry relative="1" as="geometry" />
        </mxCell>
        <mxCell id="pMBZAqhWsrPCzpvvNTBV-181" value="Input valid" style="edgeLabel;html=1;align=center;verticalAlign=middle;resizable=0;points=[];" vertex="1" connectable="0" parent="pMBZAqhWsrPCzpvvNTBV-174">
          <mxGeometry x="-0.5507" y="1" relative="1" as="geometry">
            <mxPoint x="-1" y="5" as="offset" />
          </mxGeometry>
        </mxCell>
        <mxCell id="pMBZAqhWsrPCzpvvNTBV-186" value="" style="edgeStyle=orthogonalEdgeStyle;rounded=0;orthogonalLoop=1;jettySize=auto;html=1;" edge="1" parent="1" source="pMBZAqhWsrPCzpvvNTBV-171" target="pMBZAqhWsrPCzpvvNTBV-185">
          <mxGeometry relative="1" as="geometry" />
        </mxCell>
        <mxCell id="pMBZAqhWsrPCzpvvNTBV-193" value="Invalid input" style="edgeLabel;html=1;align=center;verticalAlign=middle;resizable=0;points=[];" vertex="1" connectable="0" parent="pMBZAqhWsrPCzpvvNTBV-186">
          <mxGeometry x="-0.1785" relative="1" as="geometry">
            <mxPoint as="offset" />
          </mxGeometry>
        </mxCell>
        <mxCell id="pMBZAqhWsrPCzpvvNTBV-171" value="Enter expense amount" style="shape=parallelogram;perimeter=parallelogramPerimeter;whiteSpace=wrap;html=1;fixedSize=1;rounded=0;" vertex="1" parent="1">
          <mxGeometry x="1209.5" y="1396" width="145" height="64" as="geometry" />
        </mxCell>
        <mxCell id="pMBZAqhWsrPCzpvvNTBV-176" value="" style="edgeStyle=orthogonalEdgeStyle;rounded=0;orthogonalLoop=1;jettySize=auto;html=1;" edge="1" parent="1" source="pMBZAqhWsrPCzpvvNTBV-173" target="pMBZAqhWsrPCzpvvNTBV-175">
          <mxGeometry relative="1" as="geometry" />
        </mxCell>
        <mxCell id="pMBZAqhWsrPCzpvvNTBV-182" value="Input valid" style="edgeLabel;html=1;align=center;verticalAlign=middle;resizable=0;points=[];" vertex="1" connectable="0" parent="pMBZAqhWsrPCzpvvNTBV-176">
          <mxGeometry x="-0.2624" y="5" relative="1" as="geometry">
            <mxPoint x="-5" y="-4" as="offset" />
          </mxGeometry>
        </mxCell>
        <mxCell id="pMBZAqhWsrPCzpvvNTBV-184" value="" style="edgeStyle=orthogonalEdgeStyle;rounded=0;orthogonalLoop=1;jettySize=auto;html=1;" edge="1" parent="1" source="pMBZAqhWsrPCzpvvNTBV-173" target="pMBZAqhWsrPCzpvvNTBV-183">
          <mxGeometry relative="1" as="geometry" />
        </mxCell>
        <mxCell id="pMBZAqhWsrPCzpvvNTBV-194" value="Invalid input" style="edgeLabel;html=1;align=center;verticalAlign=middle;resizable=0;points=[];" vertex="1" connectable="0" parent="pMBZAqhWsrPCzpvvNTBV-184">
          <mxGeometry x="-0.1808" y="-3" relative="1" as="geometry">
            <mxPoint x="1" y="-3" as="offset" />
          </mxGeometry>
        </mxCell>
        <mxCell id="pMBZAqhWsrPCzpvvNTBV-173" value="User selects expense category" style="rhombus;whiteSpace=wrap;html=1;rounded=0;" vertex="1" parent="1">
          <mxGeometry x="1227.5" y="1506" width="109" height="95" as="geometry" />
        </mxCell>
        <mxCell id="pMBZAqhWsrPCzpvvNTBV-178" value="" style="edgeStyle=orthogonalEdgeStyle;rounded=0;orthogonalLoop=1;jettySize=auto;html=1;" edge="1" parent="1" source="pMBZAqhWsrPCzpvvNTBV-175" target="pMBZAqhWsrPCzpvvNTBV-177">
          <mxGeometry relative="1" as="geometry" />
        </mxCell>
        <mxCell id="pMBZAqhWsrPCzpvvNTBV-175" value="Expense date automatically added with datetime package" style="whiteSpace=wrap;html=1;rounded=0;" vertex="1" parent="1">
          <mxGeometry x="1222" y="1648" width="120" height="60" as="geometry" />
        </mxCell>
        <mxCell id="pMBZAqhWsrPCzpvvNTBV-177" value="Expense entry added" style="whiteSpace=wrap;html=1;rounded=0;" vertex="1" parent="1">
          <mxGeometry x="1222" y="1760" width="120" height="60" as="geometry" />
        </mxCell>
        <mxCell id="pMBZAqhWsrPCzpvvNTBV-183" value="Display error message that user input is not valid" style="whiteSpace=wrap;html=1;rounded=0;" vertex="1" parent="1">
          <mxGeometry x="1437" y="1523.5" width="120" height="60" as="geometry" />
        </mxCell>
        <mxCell id="pMBZAqhWsrPCzpvvNTBV-185" value="Display error message that user input is not valid" style="whiteSpace=wrap;html=1;rounded=0;" vertex="1" parent="1">
          <mxGeometry x="1437" y="1398" width="120" height="60" as="geometry" />
        </mxCell>
        <mxCell id="pMBZAqhWsrPCzpvvNTBV-187" value="Display error message that user input is not valid" style="whiteSpace=wrap;html=1;rounded=0;" vertex="1" parent="1">
          <mxGeometry x="1437" y="1270.5" width="120" height="60" as="geometry" />
        </mxCell>
        <mxCell id="pMBZAqhWsrPCzpvvNTBV-189" value="" style="endArrow=classic;html=1;rounded=0;exitX=0.5;exitY=0;exitDx=0;exitDy=0;" edge="1" parent="1">
          <mxGeometry width="50" height="50" relative="1" as="geometry">
            <mxPoint x="1501" y="1270.5" as="sourcePoint" />
            <mxPoint x="1291" y="1250" as="targetPoint" />
          </mxGeometry>
        </mxCell>
        <mxCell id="pMBZAqhWsrPCzpvvNTBV-190" value="" style="endArrow=classic;html=1;rounded=0;exitX=0.5;exitY=0;exitDx=0;exitDy=0;" edge="1" parent="1">
          <mxGeometry width="50" height="50" relative="1" as="geometry">
            <mxPoint x="1501" y="1398" as="sourcePoint" />
            <mxPoint x="1287" y="1370" as="targetPoint" />
          </mxGeometry>
        </mxCell>
        <mxCell id="pMBZAqhWsrPCzpvvNTBV-191" value="" style="endArrow=classic;html=1;rounded=0;exitX=0.5;exitY=0;exitDx=0;exitDy=0;" edge="1" parent="1">
          <mxGeometry width="50" height="50" relative="1" as="geometry">
            <mxPoint x="1501" y="1523.5" as="sourcePoint" />
            <mxPoint x="1287" y="1488" as="targetPoint" />
          </mxGeometry>
        </mxCell>
        <mxCell id="pMBZAqhWsrPCzpvvNTBV-196" value="" style="endArrow=classic;html=1;rounded=0;" edge="1" parent="1">
          <mxGeometry width="50" height="50" relative="1" as="geometry">
            <mxPoint x="1281" y="1819" as="sourcePoint" />
            <mxPoint x="680" y="1788" as="targetPoint" />
            <Array as="points">
              <mxPoint x="1281" y="1885" />
              <mxPoint x="680" y="1882" />
            </Array>
          </mxGeometry>
        </mxCell>
        <mxCell id="pMBZAqhWsrPCzpvvNTBV-197" value="" style="endArrow=classic;html=1;rounded=0;entryX=0.5;entryY=0;entryDx=0;entryDy=0;snapToPoint=0;" edge="1" parent="1">
          <mxGeometry width="50" height="50" relative="1" as="geometry">
            <mxPoint x="1648.33" y="1001" as="sourcePoint" />
            <mxPoint x="1648.33" y="1058" as="targetPoint" />
            <Array as="points">
              <mxPoint x="1648.33" y="1032" />
            </Array>
          </mxGeometry>
        </mxCell>
        <mxCell id="pMBZAqhWsrPCzpvvNTBV-201" value="" style="edgeStyle=orthogonalEdgeStyle;rounded=0;orthogonalLoop=1;jettySize=auto;html=1;" edge="1" parent="1" source="pMBZAqhWsrPCzpvvNTBV-198" target="pMBZAqhWsrPCzpvvNTBV-200">
          <mxGeometry relative="1" as="geometry" />
        </mxCell>
        <mxCell id="pMBZAqhWsrPCzpvvNTBV-198" value="Displays available months containing entries" style="whiteSpace=wrap;html=1;rounded=0;" vertex="1" parent="1">
          <mxGeometry x="1589" y="1162" width="120" height="60" as="geometry" />
        </mxCell>
        <mxCell id="pMBZAqhWsrPCzpvvNTBV-203" value="" style="edgeStyle=orthogonalEdgeStyle;rounded=0;orthogonalLoop=1;jettySize=auto;html=1;" edge="1" parent="1" source="pMBZAqhWsrPCzpvvNTBV-200" target="pMBZAqhWsrPCzpvvNTBV-202">
          <mxGeometry relative="1" as="geometry" />
        </mxCell>
        <mxCell id="pMBZAqhWsrPCzpvvNTBV-200" value="User selects a month to view entries" style="rhombus;whiteSpace=wrap;html=1;rounded=0;" vertex="1" parent="1">
          <mxGeometry x="1578.25" y="1275" width="141.5" height="117" as="geometry" />
        </mxCell>
        <mxCell id="pMBZAqhWsrPCzpvvNTBV-208" value="" style="edgeStyle=orthogonalEdgeStyle;rounded=0;orthogonalLoop=1;jettySize=auto;html=1;" edge="1" parent="1" source="pMBZAqhWsrPCzpvvNTBV-202" target="pMBZAqhWsrPCzpvvNTBV-207">
          <mxGeometry relative="1" as="geometry" />
        </mxCell>
        <mxCell id="pMBZAqhWsrPCzpvvNTBV-202" value="Prompt user to select to view all entries for month or by category" style="whiteSpace=wrap;html=1;rounded=0;" vertex="1" parent="1">
          <mxGeometry x="1589" y="1467.5" width="120" height="60" as="geometry" />
        </mxCell>
        <mxCell id="pMBZAqhWsrPCzpvvNTBV-210" value="" style="edgeStyle=orthogonalEdgeStyle;rounded=0;orthogonalLoop=1;jettySize=auto;html=1;" edge="1" parent="1" source="pMBZAqhWsrPCzpvvNTBV-207" target="pMBZAqhWsrPCzpvvNTBV-209">
          <mxGeometry relative="1" as="geometry" />
        </mxCell>
        <mxCell id="pMBZAqhWsrPCzpvvNTBV-213" value="All entries" style="edgeLabel;html=1;align=center;verticalAlign=middle;resizable=0;points=[];" vertex="1" connectable="0" parent="pMBZAqhWsrPCzpvvNTBV-210">
          <mxGeometry x="-0.2584" y="-2" relative="1" as="geometry">
            <mxPoint x="7" y="-3" as="offset" />
          </mxGeometry>
        </mxCell>
        <mxCell id="pMBZAqhWsrPCzpvvNTBV-212" value="" style="edgeStyle=orthogonalEdgeStyle;rounded=0;orthogonalLoop=1;jettySize=auto;html=1;" edge="1" parent="1" source="pMBZAqhWsrPCzpvvNTBV-207" target="pMBZAqhWsrPCzpvvNTBV-211">
          <mxGeometry relative="1" as="geometry" />
        </mxCell>
        <mxCell id="pMBZAqhWsrPCzpvvNTBV-214" value="By category" style="edgeLabel;html=1;align=center;verticalAlign=middle;resizable=0;points=[];" vertex="1" connectable="0" parent="pMBZAqhWsrPCzpvvNTBV-212">
          <mxGeometry x="-0.1519" y="2" relative="1" as="geometry">
            <mxPoint as="offset" />
          </mxGeometry>
        </mxCell>
        <mxCell id="pMBZAqhWsrPCzpvvNTBV-207" value="User selects choice" style="rhombus;whiteSpace=wrap;html=1;rounded=0;" vertex="1" parent="1">
          <mxGeometry x="1609" y="1597.5" width="80" height="80" as="geometry" />
        </mxCell>
        <mxCell id="pMBZAqhWsrPCzpvvNTBV-209" value="Displays all entries for the month" style="whiteSpace=wrap;html=1;rounded=0;" vertex="1" parent="1">
          <mxGeometry x="1778" y="1607.5" width="120" height="60" as="geometry" />
        </mxCell>
        <mxCell id="pMBZAqhWsrPCzpvvNTBV-218" value="" style="edgeStyle=orthogonalEdgeStyle;rounded=0;orthogonalLoop=1;jettySize=auto;html=1;" edge="1" parent="1" source="pMBZAqhWsrPCzpvvNTBV-211" target="pMBZAqhWsrPCzpvvNTBV-217">
          <mxGeometry relative="1" as="geometry" />
        </mxCell>
        <mxCell id="pMBZAqhWsrPCzpvvNTBV-211" value="Prompt user to select from list of income and expense categories" style="whiteSpace=wrap;html=1;rounded=0;" vertex="1" parent="1">
          <mxGeometry x="1589" y="1767.5" width="120" height="60" as="geometry" />
        </mxCell>
        <mxCell id="pMBZAqhWsrPCzpvvNTBV-222" value="" style="edgeStyle=orthogonalEdgeStyle;rounded=0;orthogonalLoop=1;jettySize=auto;html=1;" edge="1" parent="1" source="pMBZAqhWsrPCzpvvNTBV-217" target="pMBZAqhWsrPCzpvvNTBV-221">
          <mxGeometry relative="1" as="geometry" />
        </mxCell>
        <mxCell id="pMBZAqhWsrPCzpvvNTBV-217" value="User selects income category" style="rhombus;whiteSpace=wrap;html=1;rounded=0;" vertex="1" parent="1">
          <mxGeometry x="1599" y="1859" width="100" height="97.5" as="geometry" />
        </mxCell>
        <mxCell id="pMBZAqhWsrPCzpvvNTBV-224" value="" style="edgeStyle=orthogonalEdgeStyle;rounded=0;orthogonalLoop=1;jettySize=auto;html=1;" edge="1" parent="1" source="pMBZAqhWsrPCzpvvNTBV-221" target="pMBZAqhWsrPCzpvvNTBV-223">
          <mxGeometry relative="1" as="geometry" />
        </mxCell>
        <mxCell id="pMBZAqhWsrPCzpvvNTBV-221" value="User selects expense category" style="rhombus;whiteSpace=wrap;html=1;rounded=0;" vertex="1" parent="1">
          <mxGeometry x="1599" y="1988" width="100" height="97.5" as="geometry" />
        </mxCell>
        <mxCell id="pMBZAqhWsrPCzpvvNTBV-228" value="" style="edgeStyle=orthogonalEdgeStyle;rounded=0;orthogonalLoop=1;jettySize=auto;html=1;" edge="1" parent="1" source="pMBZAqhWsrPCzpvvNTBV-223" target="pMBZAqhWsrPCzpvvNTBV-227">
          <mxGeometry relative="1" as="geometry" />
        </mxCell>
        <mxCell id="pMBZAqhWsrPCzpvvNTBV-223" value="Display entries for specified income and expense categories" style="whiteSpace=wrap;html=1;rounded=0;" vertex="1" parent="1">
          <mxGeometry x="1589" y="2124" width="120" height="60" as="geometry" />
        </mxCell>
        <mxCell id="pMBZAqhWsrPCzpvvNTBV-225" value="" style="endArrow=classic;html=1;rounded=0;entryX=1;entryY=0.5;entryDx=0;entryDy=0;exitX=1;exitY=0.5;exitDx=0;exitDy=0;" edge="1" parent="1" source="pMBZAqhWsrPCzpvvNTBV-227" target="pMBZAqhWsrPCzpvvNTBV-202">
          <mxGeometry width="50" height="50" relative="1" as="geometry">
            <mxPoint x="1721" y="2302" as="sourcePoint" />
            <mxPoint x="1760" y="2108" as="targetPoint" />
            <Array as="points">
              <mxPoint x="1927" y="2302" />
              <mxPoint x="1927" y="1498" />
            </Array>
          </mxGeometry>
        </mxCell>
        <mxCell id="pMBZAqhWsrPCzpvvNTBV-229" value="View more entries" style="edgeLabel;html=1;align=center;verticalAlign=middle;resizable=0;points=[];" vertex="1" connectable="0" parent="pMBZAqhWsrPCzpvvNTBV-225">
          <mxGeometry x="-0.8823" y="1" relative="1" as="geometry">
            <mxPoint as="offset" />
          </mxGeometry>
        </mxCell>
        <mxCell id="pMBZAqhWsrPCzpvvNTBV-227" value="Prompt user to select to view more entries or to return to sub menu" style="whiteSpace=wrap;html=1;rounded=0;" vertex="1" parent="1">
          <mxGeometry x="1589" y="2272" width="120" height="60" as="geometry" />
        </mxCell>
        <mxCell id="pMBZAqhWsrPCzpvvNTBV-230" value="" style="endArrow=classic;html=1;rounded=0;" edge="1" parent="1">
          <mxGeometry width="50" height="50" relative="1" as="geometry">
            <mxPoint x="1589" y="2306" as="sourcePoint" />
            <mxPoint x="681" y="1881" as="targetPoint" />
            <Array as="points">
              <mxPoint x="686" y="2306" />
            </Array>
          </mxGeometry>
        </mxCell>
        <mxCell id="pMBZAqhWsrPCzpvvNTBV-231" value="Return to sub menu" style="edgeLabel;html=1;align=center;verticalAlign=middle;resizable=0;points=[];" vertex="1" connectable="0" parent="pMBZAqhWsrPCzpvvNTBV-230">
          <mxGeometry x="-0.7023" y="-1" relative="1" as="geometry">
            <mxPoint as="offset" />
          </mxGeometry>
        </mxCell>
        <mxCell id="pMBZAqhWsrPCzpvvNTBV-236" value="" style="edgeStyle=orthogonalEdgeStyle;rounded=0;orthogonalLoop=1;jettySize=auto;html=1;" edge="1" parent="1" source="pMBZAqhWsrPCzpvvNTBV-233" target="pMBZAqhWsrPCzpvvNTBV-235">
          <mxGeometry relative="1" as="geometry" />
        </mxCell>
        <mxCell id="pMBZAqhWsrPCzpvvNTBV-233" value="Prompt user input to provide file name to save data" style="rounded=0;whiteSpace=wrap;html=1;" vertex="1" parent="1">
          <mxGeometry x="1987" y="1162" width="120" height="60" as="geometry" />
        </mxCell>
        <mxCell id="pMBZAqhWsrPCzpvvNTBV-239" value="" style="edgeStyle=orthogonalEdgeStyle;rounded=0;orthogonalLoop=1;jettySize=auto;html=1;" edge="1" parent="1" source="pMBZAqhWsrPCzpvvNTBV-235" target="pMBZAqhWsrPCzpvvNTBV-238">
          <mxGeometry relative="1" as="geometry" />
        </mxCell>
        <mxCell id="pMBZAqhWsrPCzpvvNTBV-240" value="Valid input" style="edgeLabel;html=1;align=center;verticalAlign=middle;resizable=0;points=[];" vertex="1" connectable="0" parent="pMBZAqhWsrPCzpvvNTBV-239">
          <mxGeometry x="-0.3057" y="4" relative="1" as="geometry">
            <mxPoint x="-7" y="9" as="offset" />
          </mxGeometry>
        </mxCell>
        <mxCell id="pMBZAqhWsrPCzpvvNTBV-242" value="" style="edgeStyle=orthogonalEdgeStyle;rounded=0;orthogonalLoop=1;jettySize=auto;html=1;" edge="1" parent="1" source="pMBZAqhWsrPCzpvvNTBV-235" target="pMBZAqhWsrPCzpvvNTBV-241">
          <mxGeometry relative="1" as="geometry" />
        </mxCell>
        <mxCell id="pMBZAqhWsrPCzpvvNTBV-243" value="Invalid input" style="edgeLabel;html=1;align=center;verticalAlign=middle;resizable=0;points=[];" vertex="1" connectable="0" parent="pMBZAqhWsrPCzpvvNTBV-242">
          <mxGeometry x="-0.1902" y="2" relative="1" as="geometry">
            <mxPoint y="1" as="offset" />
          </mxGeometry>
        </mxCell>
        <mxCell id="pMBZAqhWsrPCzpvvNTBV-235" value="User enters file name" style="shape=parallelogram;perimeter=parallelogramPerimeter;whiteSpace=wrap;html=1;fixedSize=1;" vertex="1" parent="1">
          <mxGeometry x="1974.5" y="1277.5" width="145" height="69" as="geometry" />
        </mxCell>
        <mxCell id="pMBZAqhWsrPCzpvvNTBV-238" value="Data saved to user&#39;s desktop" style="whiteSpace=wrap;html=1;" vertex="1" parent="1">
          <mxGeometry x="1987" y="1410" width="120" height="60" as="geometry" />
        </mxCell>
        <mxCell id="pMBZAqhWsrPCzpvvNTBV-241" value="Display error message stating invalid file name and to try again" style="whiteSpace=wrap;html=1;" vertex="1" parent="1">
          <mxGeometry x="2216" y="1282" width="120" height="60" as="geometry" />
        </mxCell>
        <mxCell id="pMBZAqhWsrPCzpvvNTBV-245" value="" style="endArrow=classic;html=1;rounded=0;entryX=0.5;entryY=0;entryDx=0;entryDy=0;" edge="1" parent="1" target="pMBZAqhWsrPCzpvvNTBV-125">
          <mxGeometry width="50" height="50" relative="1" as="geometry">
            <mxPoint x="2047" y="999" as="sourcePoint" />
            <mxPoint x="2100" y="949" as="targetPoint" />
          </mxGeometry>
        </mxCell>
        <mxCell id="pMBZAqhWsrPCzpvvNTBV-247" value="" style="endArrow=classic;html=1;rounded=0;" edge="1" parent="1">
          <mxGeometry width="50" height="50" relative="1" as="geometry">
            <mxPoint x="2273" y="1342" as="sourcePoint" />
            <mxPoint x="687" y="2306" as="targetPoint" />
            <Array as="points">
              <mxPoint x="2273" y="2356" />
              <mxPoint x="687" y="2356" />
            </Array>
          </mxGeometry>
        </mxCell>
        <mxCell id="pMBZAqhWsrPCzpvvNTBV-253" value="" style="edgeStyle=orthogonalEdgeStyle;rounded=0;orthogonalLoop=1;jettySize=auto;html=1;" edge="1" parent="1" source="pMBZAqhWsrPCzpvvNTBV-250" target="pMBZAqhWsrPCzpvvNTBV-252">
          <mxGeometry relative="1" as="geometry" />
        </mxCell>
        <mxCell id="pMBZAqhWsrPCzpvvNTBV-250" value="Display list of entries recorded with respective indices against it" style="rounded=0;whiteSpace=wrap;html=1;" vertex="1" parent="1">
          <mxGeometry x="2374" y="1178" width="120" height="60" as="geometry" />
        </mxCell>
        <mxCell id="pMBZAqhWsrPCzpvvNTBV-255" value="" style="edgeStyle=orthogonalEdgeStyle;rounded=0;orthogonalLoop=1;jettySize=auto;html=1;" edge="1" parent="1" source="pMBZAqhWsrPCzpvvNTBV-252" target="pMBZAqhWsrPCzpvvNTBV-254">
          <mxGeometry relative="1" as="geometry" />
        </mxCell>
        <mxCell id="pMBZAqhWsrPCzpvvNTBV-252" value="Prompt user to delete entry by inputting respective entry index to delete" style="whiteSpace=wrap;html=1;rounded=0;" vertex="1" parent="1">
          <mxGeometry x="2374" y="1282" width="120" height="60" as="geometry" />
        </mxCell>
        <mxCell id="pMBZAqhWsrPCzpvvNTBV-257" value="" style="edgeStyle=orthogonalEdgeStyle;rounded=0;orthogonalLoop=1;jettySize=auto;html=1;" edge="1" parent="1" source="pMBZAqhWsrPCzpvvNTBV-254" target="pMBZAqhWsrPCzpvvNTBV-256">
          <mxGeometry relative="1" as="geometry" />
        </mxCell>
        <mxCell id="pMBZAqhWsrPCzpvvNTBV-261" value="Valid input" style="edgeLabel;html=1;align=center;verticalAlign=middle;resizable=0;points=[];" vertex="1" connectable="0" parent="pMBZAqhWsrPCzpvvNTBV-257">
          <mxGeometry x="-0.2542" y="-1" relative="1" as="geometry">
            <mxPoint y="-1" as="offset" />
          </mxGeometry>
        </mxCell>
        <mxCell id="pMBZAqhWsrPCzpvvNTBV-263" value="" style="edgeStyle=orthogonalEdgeStyle;rounded=0;orthogonalLoop=1;jettySize=auto;html=1;" edge="1" parent="1" source="pMBZAqhWsrPCzpvvNTBV-254" target="pMBZAqhWsrPCzpvvNTBV-262">
          <mxGeometry relative="1" as="geometry" />
        </mxCell>
        <mxCell id="pMBZAqhWsrPCzpvvNTBV-264" value="Invalid input" style="edgeLabel;html=1;align=center;verticalAlign=middle;resizable=0;points=[];" vertex="1" connectable="0" parent="pMBZAqhWsrPCzpvvNTBV-263">
          <mxGeometry x="-0.2774" y="-2" relative="1" as="geometry">
            <mxPoint x="10" y="-2" as="offset" />
          </mxGeometry>
        </mxCell>
        <mxCell id="pMBZAqhWsrPCzpvvNTBV-254" value="User chooses entry to delete" style="rhombus;whiteSpace=wrap;html=1;rounded=0;" vertex="1" parent="1">
          <mxGeometry x="2382.5" y="1400" width="103" height="99" as="geometry" />
        </mxCell>
        <mxCell id="pMBZAqhWsrPCzpvvNTBV-259" value="" style="edgeStyle=orthogonalEdgeStyle;rounded=0;orthogonalLoop=1;jettySize=auto;html=1;" edge="1" parent="1" source="pMBZAqhWsrPCzpvvNTBV-256" target="pMBZAqhWsrPCzpvvNTBV-258">
          <mxGeometry relative="1" as="geometry" />
        </mxCell>
        <mxCell id="pMBZAqhWsrPCzpvvNTBV-256" value="Display message confirming chosen entry deleted" style="whiteSpace=wrap;html=1;rounded=0;" vertex="1" parent="1">
          <mxGeometry x="2374" y="1558" width="120" height="60" as="geometry" />
        </mxCell>
        <mxCell id="pMBZAqhWsrPCzpvvNTBV-258" value="Display updated list of entries" style="whiteSpace=wrap;html=1;rounded=0;" vertex="1" parent="1">
          <mxGeometry x="2374" y="1677.5" width="120" height="60" as="geometry" />
        </mxCell>
        <mxCell id="pMBZAqhWsrPCzpvvNTBV-260" value="" style="endArrow=classic;html=1;rounded=0;" edge="1" parent="1">
          <mxGeometry width="50" height="50" relative="1" as="geometry">
            <mxPoint x="2433" y="1738" as="sourcePoint" />
            <mxPoint x="686" y="2356" as="targetPoint" />
            <Array as="points">
              <mxPoint x="2430" y="2380" />
              <mxPoint x="686" y="2380" />
            </Array>
          </mxGeometry>
        </mxCell>
        <mxCell id="pMBZAqhWsrPCzpvvNTBV-262" value="Display error message that user input is not valid and to try again" style="whiteSpace=wrap;html=1;rounded=0;" vertex="1" parent="1">
          <mxGeometry x="2568" y="1419.5" width="120" height="60" as="geometry" />
        </mxCell>
        <mxCell id="pMBZAqhWsrPCzpvvNTBV-265" value="" style="endArrow=classic;html=1;rounded=0;" edge="1" parent="1">
          <mxGeometry width="50" height="50" relative="1" as="geometry">
            <mxPoint x="2625" y="1419" as="sourcePoint" />
            <mxPoint x="2441" y="1369" as="targetPoint" />
          </mxGeometry>
        </mxCell>
        <mxCell id="pMBZAqhWsrPCzpvvNTBV-268" value="" style="endArrow=classic;html=1;rounded=0;snapToPoint=0;" edge="1" parent="1" target="pMBZAqhWsrPCzpvvNTBV-126">
          <mxGeometry width="50" height="50" relative="1" as="geometry">
            <mxPoint x="2433.33" y="999" as="sourcePoint" />
            <mxPoint x="2433.33" y="1056" as="targetPoint" />
            <Array as="points">
              <mxPoint x="2433.33" y="1030" />
            </Array>
          </mxGeometry>
        </mxCell>
        <mxCell id="pMBZAqhWsrPCzpvvNTBV-269" value="" style="endArrow=classic;html=1;rounded=0;entryX=0.483;entryY=0.05;entryDx=0;entryDy=0;snapToPoint=0;entryPerimeter=0;" edge="1" parent="1" target="pMBZAqhWsrPCzpvvNTBV-127">
          <mxGeometry width="50" height="50" relative="1" as="geometry">
            <mxPoint x="2833" y="998" as="sourcePoint" />
            <mxPoint x="2833" y="1055" as="targetPoint" />
            <Array as="points">
              <mxPoint x="2833" y="1029" />
            </Array>
          </mxGeometry>
        </mxCell>
        <mxCell id="pMBZAqhWsrPCzpvvNTBV-270" value="" style="endArrow=classic;html=1;rounded=0;entryX=0.475;entryY=0.05;entryDx=0;entryDy=0;snapToPoint=0;entryPerimeter=0;" edge="1" parent="1" target="pMBZAqhWsrPCzpvvNTBV-128">
          <mxGeometry width="50" height="50" relative="1" as="geometry">
            <mxPoint x="3114" y="998" as="sourcePoint" />
            <mxPoint x="3114" y="1055" as="targetPoint" />
            <Array as="points">
              <mxPoint x="3114" y="1029" />
            </Array>
          </mxGeometry>
        </mxCell>
        <mxCell id="pMBZAqhWsrPCzpvvNTBV-271" value="" style="endArrow=none;html=1;rounded=0;" edge="1" parent="1">
          <mxGeometry width="50" height="50" relative="1" as="geometry">
            <mxPoint x="2045" y="1470" as="sourcePoint" />
            <mxPoint x="2045" y="2357" as="targetPoint" />
          </mxGeometry>
        </mxCell>
        <mxCell id="pMBZAqhWsrPCzpvvNTBV-273" value="" style="endArrow=classic;html=1;rounded=0;entryX=0;entryY=0.5;entryDx=0;entryDy=0;" edge="1" parent="1" target="pMBZAqhWsrPCzpvvNTBV-80">
          <mxGeometry width="50" height="50" relative="1" as="geometry">
            <mxPoint x="3114" y="1119" as="sourcePoint" />
            <mxPoint x="3164" y="1069" as="targetPoint" />
            <Array as="points">
              <mxPoint x="3114" y="2424" />
              <mxPoint x="634" y="2420" />
              <mxPoint x="630" y="219" />
            </Array>
          </mxGeometry>
        </mxCell>
        <mxCell id="pMBZAqhWsrPCzpvvNTBV-279" value="" style="edgeStyle=orthogonalEdgeStyle;rounded=0;orthogonalLoop=1;jettySize=auto;html=1;" edge="1" parent="1" source="pMBZAqhWsrPCzpvvNTBV-274" target="pMBZAqhWsrPCzpvvNTBV-278">
          <mxGeometry relative="1" as="geometry" />
        </mxCell>
        <mxCell id="pMBZAqhWsrPCzpvvNTBV-274" value="Prompt user input to provide file name to export data to csv file" style="whiteSpace=wrap;html=1;rounded=0;" vertex="1" parent="1">
          <mxGeometry x="2775" y="1162" width="120" height="60" as="geometry" />
        </mxCell>
        <mxCell id="pMBZAqhWsrPCzpvvNTBV-281" value="" style="edgeStyle=orthogonalEdgeStyle;rounded=0;orthogonalLoop=1;jettySize=auto;html=1;" edge="1" parent="1" source="pMBZAqhWsrPCzpvvNTBV-278" target="pMBZAqhWsrPCzpvvNTBV-280">
          <mxGeometry relative="1" as="geometry" />
        </mxCell>
        <mxCell id="pMBZAqhWsrPCzpvvNTBV-282" value="Valid input" style="edgeLabel;html=1;align=center;verticalAlign=middle;resizable=0;points=[];" vertex="1" connectable="0" parent="pMBZAqhWsrPCzpvvNTBV-281">
          <mxGeometry x="-0.3074" y="-2" relative="1" as="geometry">
            <mxPoint x="5" y="8" as="offset" />
          </mxGeometry>
        </mxCell>
        <mxCell id="pMBZAqhWsrPCzpvvNTBV-284" value="" style="edgeStyle=orthogonalEdgeStyle;rounded=0;orthogonalLoop=1;jettySize=auto;html=1;" edge="1" parent="1" source="pMBZAqhWsrPCzpvvNTBV-278" target="pMBZAqhWsrPCzpvvNTBV-283">
          <mxGeometry relative="1" as="geometry" />
        </mxCell>
        <mxCell id="pMBZAqhWsrPCzpvvNTBV-288" value="Invalid input" style="edgeLabel;html=1;align=center;verticalAlign=middle;resizable=0;points=[];" vertex="1" connectable="0" parent="pMBZAqhWsrPCzpvvNTBV-284">
          <mxGeometry x="-0.0237" y="-2" relative="1" as="geometry">
            <mxPoint x="-6" y="-4" as="offset" />
          </mxGeometry>
        </mxCell>
        <mxCell id="pMBZAqhWsrPCzpvvNTBV-278" value="User enters file name" style="shape=parallelogram;perimeter=parallelogramPerimeter;whiteSpace=wrap;html=1;fixedSize=1;" vertex="1" parent="1">
          <mxGeometry x="2762.5" y="1277.5" width="145" height="69" as="geometry" />
        </mxCell>
        <mxCell id="pMBZAqhWsrPCzpvvNTBV-280" value="Data exported in csv file to user&#39;s desktop" style="whiteSpace=wrap;html=1;" vertex="1" parent="1">
          <mxGeometry x="2775" y="1398" width="120" height="60" as="geometry" />
        </mxCell>
        <mxCell id="pMBZAqhWsrPCzpvvNTBV-283" value="Display error message stating invalid file name and to try again" style="whiteSpace=wrap;html=1;" vertex="1" parent="1">
          <mxGeometry x="2984" y="1282" width="120" height="60" as="geometry" />
        </mxCell>
        <mxCell id="pMBZAqhWsrPCzpvvNTBV-290" value="" style="endArrow=classic;html=1;rounded=0;" edge="1" parent="1">
          <mxGeometry width="50" height="50" relative="1" as="geometry">
            <mxPoint x="3041" y="1343" as="sourcePoint" />
            <mxPoint x="689" y="2379" as="targetPoint" />
            <Array as="points">
              <mxPoint x="3041" y="2403" />
              <mxPoint x="689" y="2403" />
            </Array>
          </mxGeometry>
        </mxCell>
        <mxCell id="pMBZAqhWsrPCzpvvNTBV-291" value="" style="endArrow=none;html=1;rounded=0;" edge="1" parent="1">
          <mxGeometry width="50" height="50" relative="1" as="geometry">
            <mxPoint x="2833" y="1459" as="sourcePoint" />
            <mxPoint x="2829" y="2401" as="targetPoint" />
          </mxGeometry>
        </mxCell>
        <mxCell id="pMBZAqhWsrPCzpvvNTBV-292" value="Expense Tracker Application Flowchart - By Ishan Acharya" style="text;strokeColor=none;fillColor=none;html=1;fontSize=24;fontStyle=1;verticalAlign=middle;align=center;" vertex="1" parent="1">
          <mxGeometry x="1324" y="19" width="100" height="40" as="geometry" />
        </mxCell>
      </root>
    </mxGraphModel>
  </diagram>
</mxfile>
